<?xml version="1.0" standalone="no"?>
<!DOCTYPE svg PUBLIC "-//W3C//DTD SVG 20010904//EN"
 "http://www.w3.org/TR/2001/REC-SVG-20010904/DTD/svg10.dtd">
<svg version="1.0" xmlns="http://www.w3.org/2000/svg"
 width="1080.000000pt" height="1080.000000pt" viewBox="0 0 1080.000000 1080.000000"
 preserveAspectRatio="xMidYMid meet">

<g transform="translate(0.000000,1080.000000) scale(0.100000,-0.100000)"
fill="#000000" stroke="none">
<path d="M3700 10496 c-19 -7 -66 -29 -105 -48 -38 -19 -126 -52 -194 -72
-194 -58 -323 -132 -413 -238 -59 -69 -180 -247 -252 -371 -191 -325 -316
-731 -266 -862 6 -17 22 -44 36 -62 13 -17 24 -39 24 -48 0 -47 83 -116 167
-137 27 -7 51 -17 55 -22 4 -6 11 -6 20 1 7 6 45 18 83 26 39 9 90 23 114 32
57 20 58 20 65 -12 12 -56 55 -289 62 -337 6 -46 6 -48 -14 -37 -30 16 -62 14
-62 -4 0 -9 11 -21 25 -27 25 -11 34 -28 15 -28 -20 0 -9 -31 14 -39 18 -7 39
-2 92 22 174 81 290 145 300 166 9 18 13 19 17 7 7 -18 37 -22 37 -6 0 6 10 8
24 4 26 -6 46 17 46 53 0 12 16 24 48 38 26 11 51 18 57 17 5 -2 15 4 21 13 8
10 14 12 19 6 10 -18 25 -13 36 12 15 33 62 59 93 51 20 -5 40 4 91 40 67 46
85 54 85 36 0 -21 41 -8 126 41 49 28 100 59 114 69 14 10 62 36 107 59 45 22
96 54 113 71 24 23 36 28 59 24 23 -5 30 -2 35 14 8 23 39 39 44 23 7 -20 41
-11 58 14 13 20 19 23 31 14 11 -10 34 -1 111 39 100 52 246 113 387 162 106
37 155 59 155 68 0 4 -5 13 -12 20 -9 9 -9 12 0 12 23 0 12 31 -26 73 -21 23
-62 74 -91 112 -128 171 -669 674 -755 701 -11 4 -57 29 -101 57 -135 85 -265
131 -457 162 -20 3 -65 25 -100 49 -77 53 -94 58 -138 42z"/>
<path d="M5426 9354 c-3 -9 -6 -34 -6 -56 0 -32 3 -39 17 -36 18 3 38 71 29
95 -7 18 -33 16 -40 -3z"/>
<path d="M5496 9318 c-11 -41 -7 -58 13 -58 18 0 31 25 31 63 0 26 -36 22 -44
-5z"/>
<path d="M5645 9307 c-20 -16 -26 -29 -22 -41 9 -24 35 -16 55 16 25 41 3 57
-33 25z"/>
<path d="M5574 9216 c-7 -17 53 -106 71 -106 27 0 25 19 -6 69 -30 50 -55 64
-65 37z"/>
<path d="M5758 9193 c-38 -15 -50 -39 -24 -49 20 -8 96 33 96 51 0 19 -25 18
-72 -2z"/>
<path d="M5768 9076 c-47 -14 -66 -32 -51 -47 22 -22 134 25 119 49 -8 14 -19
14 -68 -2z"/>
<path d="M5755 8996 c-33 -8 -51 -18 -53 -29 -3 -13 4 -17 33 -17 46 0 108 26
103 42 -6 17 -24 18 -83 4z"/>
<path d="M2353 8963 c-21 -7 -15 -27 15 -56 31 -30 50 -34 58 -13 9 22 -50 77
-73 69z"/>
<path d="M5635 8906 c-11 -7 -59 -34 -107 -59 -48 -25 -93 -51 -100 -57 -7 -6
-51 -33 -98 -59 -79 -43 -114 -81 -75 -81 15 0 33 9 165 80 30 17 59 30 65 30
18 0 149 -66 162 -81 7 -8 25 -51 42 -96 l30 -82 -62 -45 c-34 -24 -89 -67
-122 -95 l-60 -50 -26 56 c-29 60 -78 117 -121 139 -15 8 -49 14 -76 14 -80 0
-140 -52 -164 -142 -14 -53 -1 -151 37 -295 l21 -81 -69 -104 c-79 -119 -223
-401 -256 -506 -17 -50 -28 -72 -40 -72 -10 0 -29 -26 -50 -65 -18 -36 -49
-79 -68 -96 -33 -28 -39 -30 -87 -24 -28 4 -96 22 -151 40 -140 47 -254 68
-367 69 l-98 1 0 30 c0 105 23 380 39 468 18 101 69 227 91 227 13 0 72 118
65 130 -13 20 -31 8 -55 -35 l-25 -45 -15 33 c-8 17 -22 32 -30 32 -16 0 -16
-10 -6 -80 5 -31 4 -35 -3 -17 -6 12 -13 22 -17 22 -4 0 -30 -18 -59 -39 -72
-54 -157 -95 -290 -140 -89 -29 -115 -35 -119 -24 -7 18 -35 17 -42 -2 -4 -8
-15 -15 -25 -15 -10 0 -19 -6 -19 -14 0 -21 -19 -30 -35 -16 -11 9 -23 9 -51
0 -20 -7 -56 -10 -79 -7 -31 5 -45 3 -48 -7 -9 -22 14 -36 58 -36 36 0 44 -4
54 -27 23 -49 105 -166 159 -224 48 -52 53 -62 50 -96 l-3 -38 -60 -7 c-111
-14 -279 -60 -360 -99 -111 -54 -168 -113 -200 -208 -29 -85 -31 -136 -9 -212
28 -95 143 -292 264 -454 l31 -41 -16 -44 c-62 -177 -92 -425 -66 -551 14 -66
103 -197 148 -219 39 -18 192 -25 264 -11 54 11 140 41 291 102 51 21 122 25
164 9 14 -6 57 -12 95 -13 38 -2 74 -8 81 -15 17 -17 15 -307 -3 -349 l-14
-33 -44 30 c-51 35 -95 45 -155 36 -54 -8 -133 -57 -146 -90 l-9 -24 -76 29
c-145 57 -275 82 -427 83 -105 0 -138 3 -138 13 0 16 -4 16 -87 -1 -89 -19
-230 -69 -318 -113 -248 -125 -474 -355 -605 -614 -44 -85 -87 -239 -107 -374
-15 -103 -15 -121 1 -275 10 -91 25 -201 33 -245 8 -44 15 -87 15 -95 1 -8 9
-26 20 -39 18 -24 18 -24 -11 -42 -33 -20 -51 -47 -51 -78 0 -15 -14 -25 -55
-40 -69 -26 -179 -28 -315 -6 -111 18 -129 16 -168 -27 -26 -27 -29 -35 -21
-62 5 -17 9 -45 9 -62 0 -33 27 -77 147 -242 88 -120 420 -449 574 -569 237
-184 479 -316 766 -419 169 -60 247 -81 523 -143 291 -66 376 -76 635 -76 206
1 239 3 312 23 45 12 84 22 87 22 3 0 6 -16 6 -36 0 -62 48 -134 115 -171 12
-7 32 -87 76 -304 67 -331 75 -360 134 -479 40 -80 87 -136 152 -181 11 -8 31
-32 44 -54 31 -55 146 -172 193 -197 21 -11 70 -26 108 -34 119 -25 350 10
571 86 61 21 180 53 262 70 352 72 538 159 820 386 163 130 256 233 354 391
105 170 197 385 208 485 l6 63 113 117 c129 135 186 206 251 315 111 187 212
510 215 683 1 89 -11 118 -83 202 -27 31 -56 75 -63 96 -32 91 -102 192 -163
236 l-38 26 330 0 c182 0 336 0 343 0 9 0 12 209 12 1009 l0 1009 48 16 c57
19 169 102 216 159 19 23 55 78 81 122 47 80 129 185 145 185 4 0 -9 -34 -30
-74 -49 -99 -59 -153 -44 -242 14 -83 70 -209 110 -246 57 -52 112 -73 195
-73 89 0 131 22 180 94 43 65 52 111 47 236 -4 94 -9 121 -37 189 -17 43 -41
92 -52 108 l-21 30 35 36 c40 43 61 100 53 145 l-6 32 96 2 c123 4 221 25 309
67 131 62 211 157 222 260 5 53 4 57 -29 90 -102 102 -355 82 -509 -40 -43
-34 44 51 185 180 159 146 258 287 290 412 23 88 21 99 -20 125 l-36 22 -23
-24 c-23 -24 -532 -605 -1147 -1307 -303 -346 -337 -389 -333 -414 l5 -28
-619 0 -619 0 9 38 c15 63 11 97 -14 120 -45 42 -99 23 -244 -88 -53 -40 -102
-70 -116 -70 -20 0 -156 107 -165 131 -2 4 -25 22 -53 39 -46 30 -51 31 -73
17 -26 -17 -36 -54 -36 -133 l0 -53 -42 -6 c-24 -3 -65 -2 -93 4 -33 6 -53 6
-60 0 -6 -6 -10 -78 -11 -172 0 -89 -1 -210 -2 -268 l-2 -106 -64 62 c-36 34
-96 82 -133 107 -184 121 -217 144 -220 154 -2 6 7 15 19 21 129 59 415 370
550 598 39 66 77 127 85 136 8 9 35 19 61 22 63 8 223 55 242 72 8 7 47 18 86
24 164 25 376 148 516 300 147 160 216 279 263 453 33 121 59 384 50 503 -16
222 -80 435 -191 639 -83 152 -147 237 -271 357 -172 167 -319 255 -508 306
-86 23 -120 27 -245 27 -128 1 -158 -3 -255 -28 -171 -44 -356 -121 -483 -202
l-52 -34 -11 27 c-6 16 -21 57 -34 93 -12 36 -35 96 -50 134 l-28 69 26 19
c48 35 21 68 -28 34z m-408 -535 c6 -9 14 -54 18 -100 6 -75 5 -86 -11 -98
-35 -26 -50 -16 -63 42 -11 49 -8 154 6 177 5 10 36 -3 50 -21z m198 -141 c-3
-5 -11 -10 -16 -10 -6 0 -7 5 -4 10 3 6 11 10 16 10 6 0 7 -4 4 -10z m4518
-993 c-11 -12 -222 -254 -468 -537 -828 -951 -969 -1110 -977 -1110 -4 0 -8 3
-8 8 0 4 143 169 316 367 174 198 503 573 731 833 229 260 418 470 421 467 3
-3 -4 -15 -15 -28z m-5442 -412 c125 -27 309 -124 539 -285 69 -48 137 -99
152 -113 14 -13 53 -41 85 -60 l58 -35 28 -94 c112 -366 142 -432 245 -531
122 -117 247 -154 353 -105 30 14 75 44 102 68 51 45 190 223 274 351 l53 79
45 0 c40 0 45 -2 45 -23 0 -13 -12 -39 -26 -58 -14 -19 -39 -59 -57 -89 -65
-115 -288 -368 -403 -460 -68 -55 -173 -110 -253 -134 -76 -22 -251 -21 -366
3 -146 30 -260 81 -445 199 -99 64 -247 169 -273 195 -13 13 -22 15 -37 7 -10
-5 -22 -15 -25 -20 -12 -20 -126 -70 -192 -86 -53 -12 -106 -15 -238 -12 -167
5 -172 5 -290 45 -66 23 -136 48 -155 56 -82 36 -138 169 -147 347 -20 400
196 701 545 760 84 14 306 11 383 -5z m5406 -292 c7 -20 -81 -100 -144 -131
-32 -16 -89 -39 -126 -51 -73 -22 -239 -40 -222 -24 57 54 227 158 318 194 76
30 166 36 174 12z m-617 -358 c-7 -8 -18 -15 -24 -15 -6 0 -2 7 8 15 25 19 32
19 16 0z m-34 -279 c103 -219 100 -383 -9 -410 -52 -13 -88 1 -109 44 -27 54
-24 182 7 300 14 52 30 112 36 133 6 23 14 35 21 31 6 -4 30 -48 54 -98z
m-2643 -198 c18 -12 59 -48 92 -80 l60 -58 -102 0 -101 0 -7 30 c-6 28 1 105
12 123 6 11 12 9 46 -15z m572 -4 c11 -12 14 -26 9 -52 -16 -85 -10 -82 -139
-82 -63 0 -115 2 -115 5 0 9 150 116 183 130 41 18 42 18 62 -1z m-5 -445 c0
-148 -4 -268 -8 -265 -18 11 -115 -26 -284 -108 -265 -129 -399 -176 -499
-176 l-29 0 0 404 c0 314 3 405 13 409 6 3 191 6 410 6 l397 1 0 -271z m1300
-729 l0 -1000 -447 2 -448 3 -3 288 c-2 272 -1 289 17 315 48 67 50 185 5 274
l-24 47 0 536 0 535 450 0 450 0 0 -1000z m-2640 598 c62 -95 131 -206 153
-246 l39 -72 -28 10 c-85 33 -168 87 -224 146 -32 35 -63 64 -67 64 -9 0 -26
24 -63 95 -15 28 -36 66 -48 85 -40 64 -32 70 114 89 6 0 61 -77 124 -171z
m-1789 81 c46 -16 113 -89 157 -174 35 -66 37 -75 36 -160 -2 -168 -42 -308
-154 -540 -105 -217 -291 -464 -539 -715 -153 -155 -359 -310 -411 -310 -6 0
-38 -18 -70 -39 -209 -139 -562 -215 -762 -165 -35 9 -73 22 -85 30 -43 27
-129 209 -119 250 6 24 32 54 47 54 5 0 20 -22 33 -49 14 -27 32 -51 41 -55
26 -10 156 -7 221 5 170 30 396 127 654 279 173 102 262 187 523 498 153 182
194 239 260 362 80 148 159 450 138 527 -9 32 -20 43 -73 72 -101 55 -107 68
-53 101 63 39 103 46 156 29z m3127 -529 c-1 -24 -5 -30 -23 -30 -33 0 -37 11
-13 37 29 31 37 29 36 -7z m-445 -604 c35 -13 73 -29 83 -34 49 -28 270 -82
332 -82 l42 0 0 -215 0 -215 -415 0 -415 0 0 278 c0 153 3 282 7 285 3 4 73 7
154 7 132 0 155 -3 212 -24z m-421 -272 c-2 -205 1 -290 9 -300 9 -11 64 -14
287 -14 l275 0 -50 -52 c-70 -74 -125 -192 -159 -335 -15 -65 -28 -119 -29
-121 -1 -1 -24 9 -50 23 -79 41 -137 31 -196 -36 l-36 -41 -64 53 c-35 29 -91
78 -124 109 -33 30 -75 67 -93 81 l-33 25 15 42 c63 177 88 454 63 690 l-13
132 30 0 c24 1 112 16 166 29 3 0 4 -128 2 -285z m-395 258 l153 -5 5 -31 c18
-114 26 -341 16 -442 -22 -209 -62 -339 -180 -586 -34 -70 -61 -134 -61 -142
0 -7 -10 -16 -21 -19 -16 -4 -20 -11 -16 -28 4 -15 1 -23 -14 -26 -10 -3 -35
-28 -55 -56 l-37 -51 -23 30 c-13 16 -31 28 -39 26 -9 -2 -13 3 -9 12 3 7 -8
29 -25 48 l-30 35 39 119 c81 249 100 394 107 807 5 298 7 328 22 321 9 -3 85
-9 168 -12z m1463 -77 c-7 -9 -15 -13 -17 -11 -7 7 7 26 19 26 6 0 6 -6 -2
-15z m751 -984 c46 -136 -105 -603 -265 -825 -65 -90 -256 -297 -267 -291 -4
3 -10 24 -14 46 -7 38 -4 44 33 83 156 163 362 505 416 692 30 101 33 142 11
150 -16 6 -19 33 -8 72 4 16 8 20 13 11 5 -6 16 -9 25 -5 14 5 16 14 11 49 -4
23 -9 58 -12 77 l-5 35 25 -30 c14 -16 31 -45 37 -64z m-5983 -380 c680 -352
1070 -481 1633 -540 332 -35 632 -22 788 35 l65 23 102 -107 101 -107 -64 -7
c-35 -3 -75 -14 -89 -22 -30 -21 -148 -63 -239 -88 -96 -25 -326 -34 -480 -19
-168 17 -218 26 -494 88 -641 144 -1052 359 -1463 764 -68 67 -110 114 -95
104 16 -9 122 -65 235 -124z m1495 -478 c-7 -2 -21 -2 -30 0 -10 3 -4 5 12 5
17 0 24 -2 18 -5z m64 -9 c-3 -3 -12 -4 -19 -1 -8 3 -5 6 6 6 11 1 17 -2 13
-5z m3846 -369 c-18 -127 -132 -373 -257 -555 -72 -105 -151 -186 -285 -294
-284 -228 -451 -307 -804 -382 -92 -19 -217 -53 -278 -74 -160 -58 -289 -82
-439 -84 -110 -1 -131 2 -173 22 -49 22 -177 140 -177 162 0 6 4 9 9 6 17 -11
150 -26 306 -36 258 -15 404 6 540 79 79 42 140 66 370 147 309 108 537 238
705 402 l95 93 -80 -7 c-44 -3 -82 -9 -85 -11 -3 -3 5 -12 18 -20 26 -18 29
-58 7 -84 -13 -14 -20 -15 -40 -5 -21 10 -24 16 -19 51 3 22 12 54 20 72 14
30 16 31 67 28 28 -2 60 -6 70 -9 9 -3 23 -8 31 -10 18 -6 56 35 39 41 -8 3
-5 11 8 24 16 16 27 59 15 59 -19 0 -39 -18 -51 -46 -19 -47 -38 -44 -33 5 4
45 -8 43 -28 -4 -13 -31 -57 -54 -69 -35 -2 4 -16 5 -29 3 -19 -4 -25 0 -29
18 -2 13 -5 1 -6 -28 -2 -101 -35 -130 -86 -78 -30 30 -36 99 -8 93 10 -2 17
-13 17 -30 2 -28 21 -56 31 -46 3 3 8 21 12 40 4 30 2 36 -17 41 -17 4 -21 12
-18 38 4 39 30 59 57 42 14 -9 21 -8 32 3 13 12 18 12 36 -1 12 -8 24 -25 26
-38 4 -19 4 -18 6 6 1 20 6 27 20 27 11 0 23 5 26 11 4 6 13 8 21 5 10 -4 14
2 14 19 0 16 6 25 15 25 8 0 15 -9 15 -20 0 -15 7 -20 25 -20 34 0 45 -43 21
-84 l-18 -31 22 20 c37 33 177 249 219 338 35 73 64 158 87 252 7 30 7 29 22
-20 12 -40 13 -64 5 -120z m-103 30 c-16 -47 -23 -40 -9 9 6 21 13 36 16 33 3
-3 0 -22 -7 -42z m-39 -92 c-12 -20 -14 -14 -5 12 4 9 9 14 11 11 3 -2 0 -13
-6 -23z m-401 -238 c22 -26 -4 -44 -30 -20 -17 16 -25 17 -59 7 -51 -16 -65
-35 -66 -90 0 -27 -5 -47 -12 -50 -16 -5 -17 -63 -2 -96 10 -22 27 -32 82 -50
23 -7 22 -36 -3 -36 -33 0 -96 39 -109 67 -22 49 -25 111 -6 132 11 13 14 27
10 42 -5 14 -4 19 4 15 7 -5 9 -1 5 9 -14 35 40 83 106 95 38 7 59 0 80 -25z
m80 -254 c6 -12 6 -22 1 -25 -5 -4 -12 0 -14 6 -3 7 -6 2 -7 -12 -2 -23 -3
-23 -9 5 -11 47 8 64 29 26z"/>
<path d="M7000 1139 c0 -24 23 -21 28 4 2 10 -3 17 -12 17 -10 0 -16 -9 -16
-21z"/>
<path d="M7150 1110 c0 -5 5 -10 10 -10 6 0 10 5 10 10 0 6 -4 10 -10 10 -5 0
-10 -4 -10 -10z"/>
<path d="M2242 8873 c4 -23 64 -35 79 -17 17 21 1 34 -42 34 -33 0 -40 -3 -37
-17z"/>
<path d="M2198 8679 c-40 -21 -48 -36 -22 -46 24 -9 94 27 94 49 0 23 -25 23
-72 -3z"/>
<path d="M5170 8658 c0 -7 -7 -22 -16 -33 -12 -16 -16 -17 -23 -6 -13 20 -33
8 -55 -34 -17 -31 -18 -38 -5 -46 10 -6 20 -2 36 16 12 14 25 20 28 15 13 -21
35 -8 55 31 12 23 19 47 16 55 -7 17 -36 19 -36 2z"/>
<path d="M2795 8590 c-12 -19 6 -30 51 -30 37 0 44 3 44 20 0 17 -7 20 -44 20
-25 0 -48 -4 -51 -10z"/>
<path d="M2191 8566 c-23 -24 -21 -46 3 -46 18 0 59 47 51 59 -10 18 -30 13
-54 -13z"/>
<path d="M4829 8476 c-97 -50 -198 -105 -225 -122 -27 -17 -79 -47 -115 -67
-36 -20 -72 -43 -79 -52 -7 -9 -45 -35 -83 -57 -53 -32 -71 -38 -77 -28 -4 7
-15 10 -23 7 -22 -8 -90 -134 -83 -153 9 -24 29 -12 54 34 13 23 30 42 37 42
19 0 168 89 220 130 22 18 63 43 90 57 28 14 68 38 90 53 74 50 124 71 143 61
60 -32 116 -172 168 -419 16 -77 33 -106 51 -88 10 10 -26 189 -62 311 -29 97
-32 117 -24 165 16 101 35 137 87 163 49 24 62 51 27 53 -11 1 -99 -39 -196
-90z"/>
<path d="M2780 8530 c0 -27 87 -70 100 -50 12 19 5 27 -40 50 -49 25 -60 25
-60 0z"/>
<path d="M2644 8375 c-8 -19 22 -65 41 -65 24 0 27 19 8 50 -19 33 -40 39 -49
15z"/>
<path d="M2343 8353 c-13 -53 -9 -107 8 -111 12 -2 18 12 27 59 6 34 9 66 6
70 -11 18 -34 8 -41 -18z"/>
<path d="M2570 8334 c0 -24 19 -54 35 -54 15 0 20 26 9 54 -8 21 -44 21 -44 0z"/>
<path d="M3050 8133 c-26 -69 -35 -144 -26 -207 8 -53 39 -97 56 -80 8 8 7 25
-6 63 -19 59 -15 120 11 191 29 78 30 90 7 90 -16 0 -26 -13 -42 -57z"/>
<path d="M4523 8179 c-79 -15 -166 -79 -178 -131 -18 -86 -23 -179 -14 -267
29 -269 149 -427 310 -408 61 8 103 29 156 80 75 72 95 183 63 350 -24 123
-44 174 -99 255 -74 108 -136 140 -238 121z m-64 -173 c11 -13 61 -197 75
-278 6 -35 5 -38 -20 -44 -15 -4 -34 -3 -42 2 -22 14 -48 89 -62 177 -12 70
-11 81 5 117 20 43 26 47 44 26z"/>
<path d="M9186 8059 c-16 -4 -61 -25 -100 -45 -91 -48 -127 -48 -276 0 -129
43 -186 44 -224 7 -30 -30 -27 -127 7 -254 l27 -97 -41 -53 c-51 -67 -99 -164
-106 -215 -5 -35 -2 -42 21 -57 26 -17 30 -17 84 -1 234 71 229 71 256 -24 41
-146 93 -220 153 -220 70 0 111 74 123 219 6 62 14 99 24 109 11 11 43 16 123
19 136 5 192 17 243 54 75 55 55 84 -135 191 -110 62 -125 75 -125 103 0 12
16 52 35 89 41 78 44 115 13 149 -27 29 -62 38 -102 26z m75 -60 c9 -18 4 -34
-30 -103 -23 -46 -41 -92 -41 -103 0 -36 45 -78 142 -133 135 -77 162 -98 147
-117 -31 -36 -73 -47 -217 -52 -137 -6 -144 -7 -162 -31 -21 -27 -30 -65 -30
-121 0 -67 -21 -140 -50 -172 -27 -31 -28 -31 -55 -13 -30 20 -58 77 -86 175
-33 118 -81 134 -241 81 -107 -36 -118 -37 -118 -7 1 46 77 180 127 223 l24
21 -21 64 c-11 35 -28 108 -37 163 l-17 99 23 18 c30 25 45 24 138 -7 162 -53
258 -75 270 -63 5 5 44 29 88 54 88 50 128 57 146 24z"/>
<path d="M8917 7803 c-15 -14 -5 -31 38 -61 51 -36 60 -38 68 -19 7 18 0 27
-44 60 -37 28 -51 32 -62 20z"/>
<path d="M8786 7681 c-10 -16 3 -35 45 -64 39 -29 69 -30 69 -4 0 14 -80 77
-99 77 -5 0 -12 -4 -15 -9z"/>
<path d="M3101 7831 c-15 -10 -8 -41 9 -41 15 0 25 29 14 40 -5 5 -15 5 -23 1z"/>
<path d="M3125 7776 c-25 -20 -28 -27 -17 -38 11 -11 18 -10 42 4 23 13 28 13
23 2 -3 -8 -9 -14 -14 -14 -16 0 -10 -30 8 -37 10 -4 24 3 40 21 28 32 29 44
6 53 -10 4 -22 12 -26 20 -12 19 -28 16 -62 -11z"/>
<path d="M7984 7717 c-42 -49 -94 -169 -94 -217 0 -50 19 -96 54 -133 33 -35
33 -40 -2 -53 -55 -21 -110 -180 -98 -282 9 -77 37 -133 96 -196 71 -75 131
-100 240 -100 71 -1 94 4 142 26 69 32 135 96 168 163 21 42 25 64 25 145 0
84 -3 102 -28 151 -50 103 -151 175 -262 186 -104 11 -183 -9 -198 -49 -2 -7
-8 -10 -12 -6 -4 3 13 32 37 64 41 55 43 60 43 128 -1 80 -34 179 -65 196 -15
8 -24 4 -46 -23z m491 -638 c17 -52 -28 -160 -92 -221 -69 -67 -190 -100 -271
-74 -22 7 -22 9 -7 26 9 9 20 41 24 70 12 77 34 94 126 97 91 3 121 17 160 77
33 50 50 57 60 25z"/>
<path d="M8358 6606 c-52 -19 -165 -87 -216 -131 -83 -72 -100 -144 -78 -325
8 -62 34 -110 59 -110 5 0 30 -18 55 -40 25 -23 79 -57 120 -78 65 -32 84 -36
146 -36 60 0 80 4 125 29 59 32 119 95 149 155 10 21 33 51 50 65 28 23 32 33
32 75 0 27 -5 61 -11 77 -6 15 -11 47 -10 71 2 58 -22 110 -57 125 -15 7 -45
31 -66 54 -63 70 -204 102 -298 69z m372 -202 l12 -36 -83 -77 c-172 -159
-230 -194 -354 -216 -112 -19 -195 0 -195 46 0 30 39 46 126 53 155 12 231 50
368 184 46 45 91 82 99 82 9 0 21 -16 27 -36z m-20 -177 c0 -155 -124 -297
-261 -297 -65 0 -118 17 -180 56 l-44 28 40 8 c22 5 77 18 122 29 62 16 86 18
102 10 11 -6 40 -11 64 -11 39 0 49 5 81 40 33 36 36 45 36 98 0 53 11 82 32
82 4 0 8 -19 8 -43z"/>
<path d="M7335 6340 c-50 -25 -105 -64 -127 -91 -21 -24 -24 -85 -5 -92 7 -2
8 -8 3 -13 -5 -5 -11 -4 -13 4 -6 15 -64 16 -114 2 -42 -12 -115 -85 -125
-125 -3 -14 -4 -51 -2 -81 6 -66 42 -118 109 -152 63 -33 160 -28 216 11 55
38 86 96 85 162 0 63 -18 101 -67 144 -20 17 -34 31 -33 32 2 0 23 6 48 12 37
10 51 21 78 61 34 51 43 111 20 134 -16 16 -26 15 -73 -8z m-237 -427 c67 2
70 1 100 -30 20 -22 39 -33 59 -33 l28 0 -30 -20 c-73 -48 -178 -31 -235 38
-35 43 -40 68 -11 52 11 -5 51 -9 89 -7z"/>
<path d="M7619 6195 c-24 -13 -38 -37 -54 -93 -13 -44 -6 -232 10 -288 18 -63
62 -117 118 -146 33 -17 54 -20 111 -16 176 12 267 141 196 278 -34 67 -195
224 -261 255 -61 28 -83 30 -120 10z m70 -128 c38 -32 103 -51 146 -43 25 5
36 1 54 -18 21 -22 22 -29 12 -57 -20 -57 -14 -132 13 -172 29 -42 23 -51 -50
-73 -80 -24 -80 -24 -79 64 0 73 -2 80 -35 127 -23 32 -55 59 -92 79 l-56 31
4 59 c6 75 22 99 39 59 7 -16 27 -41 44 -56z"/>
<path d="M7550 1240 c0 -5 5 -10 10 -10 6 0 10 5 10 10 0 6 -4 10 -10 10 -5 0
-10 -4 -10 -10z"/>
</g>
</svg>
